<svg version="1.1" xmlns="http://www.w3.org/2000/svg" viewBox="0 0 128.99866881232504 70.01670825068643" width="257.9973376246501" height="140.03341650137287" filter="invert(93%) hue-rotate(180deg)">
  <!-- svg-source:excalidraw -->
  
  <defs>
    <style class="style-fonts">
      
    </style>
    
  </defs>
  <g stroke-linecap="round"><g transform="translate(10.925987086659347 16.25383614255861) rotate(0 54.16251894863683 19.801818743029145)"><path d="M0.35 -0.89 C9.94 -1.5, 38.5 -10.83, 56.46 -3.39 C74.41 4.06, 99.37 36.11, 108.07 43.76 M-0.93 1.26 C8.61 0.81, 37.57 -8.7, 55.58 -1.92 C73.6 4.85, 98.25 34.33, 107.17 41.9" stroke="#1e1e1e" stroke-width="2" fill="none"></path></g><g transform="translate(10.925987086659347 16.25383614255861) rotate(0 54.16251894863683 19.801818743029145)"><path d="M84.45 31.48 C87.78 33.85, 93.82 35.39, 107.17 41.9 M84.45 31.48 C93.51 35.3, 102.54 38.66, 107.17 41.9" stroke="#1e1e1e" stroke-width="2" fill="none"></path></g><g transform="translate(10.925987086659347 16.25383614255861) rotate(0 54.16251894863683 19.801818743029145)"><path d="M96.46 19.31 C97.29 24.28, 100.8 28.39, 107.17 41.9 M96.46 19.31 C101.04 27.68, 105.55 35.62, 107.17 41.9" stroke="#1e1e1e" stroke-width="2" fill="none"></path></g></g><mask></mask></svg>