<svg version="1.1" xmlns="http://www.w3.org/2000/svg" viewBox="0 0 102.81449837895502 73.56328312943202" width="205.62899675791004" height="147.12656625886405" filter="invert(93%) hue-rotate(180deg)">
  <!-- svg-source:excalidraw -->
  
  <defs>
    <style class="style-fonts">
      
    </style>
    
  </defs>
  <g stroke-linecap="round"><g transform="translate(12.726235713381357 44.52839039107714) rotate(13.347983510454725 38.55947558897253 -9.261931748205797)"><path d="M-0.61 -0.73 C2.75 -5, 12.79 -19.02, 19.67 -24.85 C26.55 -30.69, 33.48 -33.98, 40.65 -35.73 C47.82 -37.47, 56.43 -37.61, 62.69 -35.32 C68.95 -33.04, 76.86 -28.16, 78.21 -22.03 C79.56 -15.89, 75.04 -4.91, 70.78 1.48 C66.51 7.87, 59.53 13.79, 52.61 16.32 C45.7 18.84, 37.7 18.09, 29.27 16.61 C20.83 15.13, 6.58 8.66, 2.01 7.42 M1.27 1.51 C4.54 -2.69, 12.48 -17.6, 18.94 -23.68 C25.39 -29.75, 32.67 -33.13, 39.99 -34.95 C47.31 -36.77, 56.64 -36.7, 62.86 -34.58 C69.08 -32.46, 75.86 -28.06, 77.31 -22.23 C78.76 -16.41, 75.59 -5.86, 71.57 0.38 C67.55 6.61, 60.31 12.46, 53.17 15.15 C46.02 17.84, 37.48 17.48, 28.71 16.5 C19.93 15.52, 4.86 10.5, 0.53 9.28" stroke="#1e1e1e" stroke-width="2" fill="none"></path></g><g transform="translate(12.726235713381357 44.52839039107714) rotate(13.347983510454725 38.55947558897253 -9.261931748205797)"><path d="M14.44 8.5 C9.95 9.1, 6.35 9.07, 0.53 9.28 M14.44 8.5 C12.1 7.93, 7.81 8.68, 0.53 9.28" stroke="#1e1e1e" stroke-width="2" fill="none"></path></g><g transform="translate(12.726235713381357 44.52839039107714) rotate(13.347983510454725 38.55947558897253 -9.261931748205797)"><path d="M11.69 17.62 C7.86 15.85, 4.98 13.42, 0.53 9.28 M11.69 17.62 C9.95 15.12, 6.24 13.92, 0.53 9.28" stroke="#1e1e1e" stroke-width="2" fill="none"></path></g></g><mask></mask></svg>