<svg version="1.1" xmlns="http://www.w3.org/2000/svg" viewBox="0 0 107.46904900237678 82.88968567264772" width="214.93809800475356" height="165.77937134529543" filter="invert(93%) hue-rotate(180deg)">
  <!-- svg-source:excalidraw -->
  
  <defs>
    <style class="style-fonts">
      
    </style>
    
  </defs>
  <g stroke-linecap="round"><g transform="translate(9.788160814371622 41.73941802985068) rotate(13.347983510454725 43.477214643551406 -2.331679755939934)"><path d="M-0.61 -0.73 C7.41 -6.42, 33.02 -31.91, 47.64 -33.4 C62.27 -34.9, 85.16 -19.83, 87.15 -9.7 C89.15 0.43, 73.18 22.37, 59.6 27.37 C46.02 32.38, 15.03 21.32, 5.66 20.31 M1.27 1.51 C9.21 -4.11, 32.71 -30.49, 46.91 -32.23 C61.11 -33.97, 84.35 -18.99, 86.49 -8.93 C88.63 1.13, 73.39 23.28, 59.76 28.12 C46.14 32.96, 14.03 21.42, 4.76 20.11" stroke="#1e1e1e" stroke-width="2" fill="none"></path></g><g transform="translate(9.788160814371622 41.73941802985068) rotate(13.347983510454725 43.477214643551406 -2.331679755939934)"><path d="M29.6 17.3 C21.89 18.58, 15.44 18.98, 4.76 20.11 M29.6 17.3 C25.2 16.81, 17.99 18.25, 4.76 20.11" stroke="#1e1e1e" stroke-width="2" fill="none"></path></g><g transform="translate(9.788160814371622 41.73941802985068) rotate(13.347983510454725 43.477214643551406 -2.331679755939934)"><path d="M25.6 33.92 C18.83 30.87, 13.43 26.9, 4.76 20.11 M25.6 33.92 C22.07 29.91, 15.72 27.79, 4.76 20.11" stroke="#1e1e1e" stroke-width="2" fill="none"></path></g></g><mask></mask></svg>