<svg version="1.1" xmlns="http://www.w3.org/2000/svg" viewBox="0 0 112.23992405049194 81.76176310938264" width="224.47984810098387" height="163.52352621876528" filter="invert(93%) hue-rotate(180deg)">
  <!-- svg-source:excalidraw -->
  
  <defs>
    <style class="style-fonts">
      
    </style>
    
  </defs>
  <g stroke-linecap="round"><g transform="translate(28.39917033965071 41.09634013186468) rotate(13.347983510454725 29.203668761454765 -0.9615592131145547)"><path d="M-0.61 -0.73 C1.93 -4.66, 9.04 -17.43, 14.79 -22.8 C20.54 -28.17, 27.06 -31.85, 33.89 -32.97 C40.73 -34.1, 49.56 -32.33, 55.8 -29.54 C62.03 -26.75, 68.94 -22.72, 71.31 -16.24 C73.68 -9.77, 73.6 2.27, 70.01 9.29 C66.42 16.3, 58.01 22.33, 49.78 25.86 C41.54 29.39, 30.96 31.16, 20.59 30.46 C10.22 29.76, -6.9 22.82, -12.43 21.64 M1.27 1.51 C3.73 -2.35, 8.73 -16.01, 14.05 -21.62 C19.38 -27.24, 26.25 -31.01, 33.23 -32.2 C40.22 -33.4, 49.76 -31.42, 55.96 -28.79 C62.16 -26.17, 67.94 -22.61, 70.42 -16.45 C72.89 -10.29, 74.15 1.32, 70.8 8.18 C67.45 15.04, 58.79 21, 50.33 24.7 C41.87 28.4, 30.74 30.55, 20.03 30.35 C9.32 30.15, -8.62 24.65, -13.92 23.5" stroke="#1e1e1e" stroke-width="2" fill="none"></path></g><g transform="translate(28.39917033965071 41.09634013186468) rotate(13.347983510454725 29.203668761454765 -0.9615592131145547)"><path d="M2.68 21.85 C-2.67 22.76, -6.97 22.91, -13.92 23.5 M2.68 21.85 C-0.11 21.32, -5.24 22.37, -13.92 23.5" stroke="#1e1e1e" stroke-width="2" fill="none"></path></g><g transform="translate(28.39917033965071 41.09634013186468) rotate(13.347983510454725 29.203668761454765 -0.9615592131145547)"><path d="M-0.15 32.9 C-4.83 30.93, -8.39 28.17, -13.92 23.5 M-0.15 32.9 C-2.32 30.03, -6.84 28.71, -13.92 23.5" stroke="#1e1e1e" stroke-width="2" fill="none"></path></g></g><mask></mask></svg>